Coordinates
version=1
nRows=13
nColumns=40
inDegrees=yes

Units are S.I. units (second, meters, Newtons, ...)
Angles are in degrees.

endheader
time	pelvis_tilt	pelvis_list	pelvis_rotation	pelvis_tx	pelvis_ty	pelvis_tz	hip_flexion_r	hip_adduction_r	hip_rotation_r	knee_angle_r	knee_angle_r_beta	ankle_angle_r	subtalar_angle_r	mtp_angle_r	hip_flexion_l	hip_adduction_l	hip_rotation_l	knee_angle_l	knee_angle_l_beta	ankle_angle_l	subtalar_angle_l	mtp_angle_l	lumbar_extension	lumbar_bending	lumbar_rotation	arm_flex_r	arm_add_r	arm_rot_r	elbow_flex_r	pro_sup_r	wrist_flex_r	wrist_dev_r	arm_flex_l	arm_add_l	arm_rot_l	elbow_flex_l	pro_sup_l	wrist_flex_l	wrist_dev_l
     37.65500000	     -4.40235405	     -4.30334718	     -5.79774469	      1.09978168	      0.92958436	      0.46746604	     24.69367428	     -1.03526221	    -12.06005045	     10.50232932	     10.50232932	      2.61006728	      9.95855969	      7.68846861	      3.33804578	     -5.19077115	    -13.65536939	     14.09170285	     14.09170285	     15.92186386	     -5.42014560	     -6.25847808	    -10.31878542	      2.63743267	     -0.74429273	     -3.98210185	    -14.99255668	    -15.80529129	     28.44026086	     47.00677567	      0.00000000	      0.00000000	     18.63844446	    -14.65309271	     -1.19010546	     50.39094615	     45.92550995	      0.00000000	      0.00000000
     37.66835714	     -4.40183394	     -4.24358828	     -5.88410093	      1.10111926	      0.92877724	      0.46960770	     24.41439180	     -0.81419982	    -12.52806226	     10.72893089	     10.72893089	      2.67908682	      9.53712811	      7.61584239	      2.58097689	     -5.15831614	    -13.81766444	     13.59608605	     13.59608605	     16.08315982	     -5.23718258	     -6.49523203	    -10.19957818	      2.66108029	     -0.74748635	     -3.87912580	    -14.81107338	    -15.82892972	     28.67782606	     46.98941408	      0.00000000	      0.00000000	     18.40230452	    -14.54453692	     -1.24901449	     50.22870764	     45.93869988	      0.00000000	      0.00000000
     37.68171429	     -4.40148416	     -4.20414295	     -5.92339787	      1.10268849	      0.92788472	      0.47177970	     24.13843220	     -0.61729091	    -12.81733210	     11.28763047	     11.28763047	      2.61795501	      8.62637863	      7.01975722	      1.84418871	     -5.14766003	    -13.89049789	     13.15897792	     13.15897792	     16.32035879	     -5.07133624	     -6.64712307	    -10.09287337	      2.78536926	     -0.74434867	     -3.73959032	    -14.60046910	    -15.79776352	     28.93171747	     46.96595211	      0.00000000	      0.00000000	     18.06471336	    -14.40642216	     -1.32465448	     49.98080085	     45.95302122	      0.00000000	      0.00000000
     37.69507143	     -4.34870169	     -4.30585568	     -5.88326863	      1.10452931	      0.92699859	      0.47394865	     23.75793128	     -0.36753233	    -13.18617584	     12.05005222	     12.05005222	      2.63001928	      7.78298240	      6.56406926	      1.14626855	     -5.32049623	    -13.85284003	     12.95626745	     12.95626745	     16.64585763	     -5.02768891	     -6.67071893	     -9.98311474	      3.09277202	     -0.72243385	     -3.58281827	    -14.46137986	    -15.75877097	     29.06457418	     46.95468437	      0.00000000	      0.00000000	     17.66719522	    -14.19133233	     -1.30128065	     49.76837483	     45.94913543	      0.00000000	      0.00000000
     37.70842857	     -4.19820017	     -4.23053037	     -5.86988595	      1.10659162	      0.92606972	      0.47619553	     23.53267160	     -0.31646639	    -12.91610927	     13.35742439	     13.35742439	      2.62614642	      6.11518470	      5.37169363	      0.28440206	     -5.27719942	    -13.92778883	     12.64166408	     12.64166408	     17.02614142	     -4.83729662	     -6.50036012	     -9.94865608	      3.22476482	     -0.83826980	     -3.28559192	    -14.32866227	    -15.66116386	     29.36912504	     46.92906957	      0.00000000	      0.00000000	     17.24116537	    -14.13034286	     -1.37768858	     49.34416191	     45.95624558	      0.00000000	      0.00000000
     37.72178571	     -4.07513352	     -4.26651903	     -5.80638423	      1.10884780	      0.92512135	      0.47868376	     22.94977500	      0.00205388	    -12.19064602	     13.84241020	     13.84241020	      0.99187898	      3.65360984	      0.41310052	     -0.31311304	     -5.46665936	    -13.96771758	     12.88397113	     12.88397113	     18.02759778	     -4.38965816	     -5.18893203	     -9.86293031	      3.38984158	     -0.78902049	     -3.27579385	    -14.25530117	    -14.81503600	     30.02732626	     46.79573996	      0.00000000	      0.00000000	     16.85826275	    -13.72668221	     -2.00949747	     48.54303467	     46.05003531	      0.00000000	      0.00000000
     37.73514286	     -3.89422847	     -4.29729036	     -5.72436126	      1.11118741	      0.92431052	      0.48101025	     22.68373190	      0.05631733	    -12.10479642	     15.18378754	     15.18378754	      1.28011220	      2.67612051	     -0.14903569	     -1.02628474	     -5.60269665	    -13.89803703	     12.95045452	     12.95045452	     18.41810715	     -4.36294136	     -5.05484244	     -9.83551378	      3.64739075	     -0.81291175	     -2.95027529	    -14.17347079	    -14.70432398	     30.24636076	     46.77574536	      0.00000000	      0.00000000	     16.27845322	    -13.58865662	     -1.97907174	     48.16442933	     46.04310172	      0.00000000	      0.00000000
     37.74850000	     -3.72100611	     -4.33304795	     -5.64260689	      1.11365094	      0.92362590	      0.48345689	     22.43086019	      0.16535603	    -11.70203617	     16.43608401	     16.43608401	      1.58190432	      1.40401580	     -0.75776501	     -1.61277995	     -5.78491753	    -13.79021955	     13.26285510	     13.26285510	     18.85701159	     -4.44570745	     -4.71491962	     -9.78720250	      3.93273108	     -0.83525810	     -2.60124075	    -14.05880608	    -14.53619261	     30.50652243	     46.74972713	      0.00000000	      0.00000000	     15.62632726	    -13.41480582	     -1.99715950	     47.63814968	     46.03898590	      0.00000000	      0.00000000
     37.76185714	     -3.56430699	     -4.45037611	     -5.55118543	      1.11605872	      0.92319154	      0.48620331	     22.07875931	      0.50983629	    -10.74795320	     17.29522171	     17.29522171	      1.44349463	     -0.64601225	     -2.14634189	     -1.91393585	     -6.17993018	    -13.76987388	     14.17149466	     14.17149466	     20.04121029	     -4.18002764	     -2.64544310	     -9.71344087	      4.25584038	     -0.81150976	     -2.34298992	    -14.08304807	    -13.55188415	     31.00832758	     46.63471443	      0.00000000	      0.00000000	     15.14920821	    -13.05091816	     -2.57583838	     46.46530400	     46.10600313	      0.00000000	      0.00000000
     37.77521429	     -3.29946826	     -4.53635218	     -5.50073884	      1.11873213	      0.92321935	      0.48885706	     21.57897145	      0.65069798	    -10.58045648	     18.11046712	     18.11046712	      1.95399067	     -0.91980975	     -2.49198285	     -2.49597300	     -6.45898361	    -13.66637337	     14.69023058	     14.69023058	     20.15969777	     -4.40980463	     -2.61149453	     -9.75972314	      4.59001067	     -0.58062330	     -2.07049327	    -13.99614120	    -13.48899900	     31.14934228	     46.62498151	      0.00000000	      0.00000000	     14.31150608	    -12.69429686	     -2.51430491	     46.07583851	     46.08906420	      0.00000000	      0.00000000
     37.78857143	     -3.18283961	     -4.51320109	     -5.36918877	      1.12095596	      0.92300735	      0.49165403	     21.54057093	      0.71405280	    -10.08131608	     19.32844405	     19.32844405	      2.58811939	     -2.00397319	     -2.91352216	     -2.40600477	     -6.77782189	    -13.38137009	     16.08778424	     16.08778424	     20.43375615	     -4.91931604	     -2.33860706	     -9.66960886	      4.74478822	     -0.75679385	     -1.46091101	    -13.92736585	    -13.24480028	     31.61018037	     46.58785763	      0.00000000	      0.00000000	     13.64537255	    -12.70177378	     -2.68384707	     45.21005200	     46.09696735	      0.00000000	      0.00000000
     37.80192857	     -3.05643467	     -4.58096652	     -5.27262654	      1.12325133	      0.92329270	      0.49463969	     21.19183923	      0.94424908	     -9.66083034	     19.94819725	     19.94819725	      3.13664465	     -2.74611059	     -3.11244787	     -2.23463437	     -7.23233223	    -13.10048878	     17.68641289	     17.68641289	     20.57785579	     -5.51596885	     -1.99635543	     -9.59630279	      5.01459881	     -0.73634753	     -0.97855533	    -13.89906193	    -12.86028602	     32.03653434	     46.54044348	      0.00000000	      0.00000000	     12.91672370	    -12.48459660	     -2.97519531	     44.20695157	     46.11748357	      0.00000000	      0.00000000
     37.81528571	     -2.66374733	     -4.48501529	     -5.26023829	      1.12578475	      0.92437075	      0.49773585	     20.41562580	      0.97814581	     -9.37055632	     20.28360206	     20.28360206	      3.78341344	     -2.84768928	     -3.34824394	     -2.50832903	     -7.44625915	    -12.99329365	     18.96883200	     18.96883200	     20.28287098	     -5.98657065	     -2.00812808	     -9.79704252	      5.04252061	     -0.36605873	     -0.62186220	    -13.82454829	    -12.76896411	     32.22969373	     46.52760665	      0.00000000	      0.00000000	     12.03778223	    -12.16441216	     -2.97951567	     43.70695852	     46.10543234	      0.00000000	      0.00000000
